<?xml version="1.0" encoding="utf-8"?>
<!-- Generator: Adobe Illustrator 16.0.4, SVG Export Plug-In . SVG Version: 6.00 Build 0)  -->
<!DOCTYPE svg PUBLIC "-//W3C//DTD SVG 1.1//EN" "http://www.w3.org/Graphics/SVG/1.1/DTD/svg11.dtd">
<svg version="1.1" id="Layer_1" xmlns="http://www.w3.org/2000/svg" xmlns:xlink="http://www.w3.org/1999/xlink" x="0px" y="0px"
	 width="477.363px" height="202.199px" viewBox="0 0 477.363 202.199" enable-background="new 0 0 477.363 202.199"
	 xml:space="preserve">
<g>
	<g>
		<path fill="#54534A" d="M39.399,173.732c0-0.308-0.265-0.521-0.649-0.521h-2.236c-0.31,0-0.577,0.186-0.656,0.521l-3.736,19.622
			c-0.075,0.309-0.038,0.461-0.191,0.461c-0.156,0-0.194-0.183-0.269-0.461l-3.771-11.397c-0.272-0.828-0.812-1.229-1.813-1.229
			h-2.465c-1.001,0-1.537,0.401-1.805,1.229l-3.775,11.397c-0.075,0.278-0.115,0.461-0.271,0.461c-0.154,0-0.116-0.152-0.194-0.461
			l-3.731-19.622c-0.078-0.335-0.347-0.521-0.658-0.521h-2.231c-0.386,0-0.655,0.213-0.655,0.521v0.097l4.27,20.818
			c0.275,1.263,1.159,1.571,2.39,1.571h1.619c1.079,0,1.885-0.613,2.193-1.542l3.812-11.394c0.078-0.278,0.116-0.278,0.234-0.278
			h0.038h0.036c0.116,0,0.158,0,0.232,0.278l3.771,11.394c0.312,0.929,1.121,1.542,2.2,1.542h1.652c1.233,0,2.115-0.309,2.384-1.571
			l4.274-20.818V173.732z M59.542,195.479v-10.134c0-4.532-2.851-6.408-6.935-6.408c-1.656,0-4.04,0.309-5.886,0.958v-6.345
			c0-0.339-0.312-0.617-0.736-0.617h-1.923c-0.424,0-0.739,0.278-0.739,0.617v21.929c0,0.335,0.354,0.613,0.739,0.613h1.885
			c0.424,0,0.774-0.305,0.774-0.613v-13.307c1.691-0.613,4.118-0.861,5.309-0.861c2.503,0,4.121,0.954,4.121,4.034v10.134
			c0,0.335,0.35,0.613,0.771,0.613h1.843C59.191,196.093,59.542,195.814,59.542,195.479 M81.098,187.809v-1.664
			c0-4.373-2.848-7.207-8.47-7.207c-5.509,0-8.551,2.805-8.551,7.207v2.774c0,5.729,4.314,7.393,8.742,7.393
			c2.581,0,4.702-0.186,6.892-0.523c0.617-0.093,0.772-0.309,0.772-0.71v-1.044c0-0.312-0.308-0.431-0.617-0.431h-0.194
			c-1.769,0.212-4.62,0.338-6.854,0.338c-3.541,0-5.354-1.356-5.354-5.022v-0.431h12.904
			C80.826,188.488,81.098,188.21,81.098,187.809 M77.673,186.423H67.464v-0.278c0-3.322,1.855-4.833,5.163-4.833
			c3.388,0,5.045,1.355,5.045,4.833V186.423z M95.226,180.758v-1.267c0-0.371-0.265-0.554-0.807-0.554
			c-1.732,0-3.504,0.404-5.428,1.481v-0.649c0-0.335-0.307-0.61-0.734-0.61h-1.809c-0.421,0-0.731,0.275-0.731,0.61v15.71
			c0,0.335,0.347,0.613,0.731,0.613h1.886c0.425,0,0.771-0.305,0.771-0.613v-12.905c1.926-0.925,3.544-1.293,5.314-1.293
			C94.961,181.281,95.226,181.096,95.226,180.758 M115.211,187.809v-1.664c0-4.373-2.853-7.207-8.47-7.207
			c-5.51,0-8.548,2.805-8.548,7.207v2.774c0,5.729,4.308,7.393,8.736,7.393c2.584,0,4.703-0.186,6.892-0.523
			c0.619-0.093,0.771-0.309,0.771-0.71v-1.044c0-0.312-0.303-0.431-0.615-0.431h-0.194c-1.772,0.212-4.62,0.338-6.854,0.338
			c-3.54,0-5.349-1.356-5.349-5.022v-0.431h12.899C114.939,188.488,115.211,188.21,115.211,187.809 M111.785,186.423h-10.204v-0.278
			c0-3.322,1.85-4.833,5.16-4.833c3.384,0,5.043,1.355,5.043,4.833V186.423z M144.085,195.479v-10.751
			c0-3.633-2.156-5.791-7.505-5.791c-2.621,0-4.389,0.183-5.972,0.404c-0.539,0.057-0.807,0.245-0.807,0.58v1.081
			c0,0.404,0.347,0.49,0.696,0.49h0.192c1.542-0.126,3.388-0.245,5.891-0.245c3,0,4.118,0.896,4.118,3.48v1.233h-2.851
			c-6.847,0-9.276,1.661-9.276,4.989v0.368c0,3.855,3.002,4.992,6.271,4.992c2.16,0,4.084-0.649,5.934-1.512v0.68
			c0,0.335,0.346,0.613,0.771,0.613h1.771C143.739,196.093,144.085,195.814,144.085,195.479 M140.697,192.864
			c-1.847,0.799-3.426,1.229-5.198,1.229c-2.236,0-3.541-0.587-3.541-2.805v-0.368c0-2.188,1.23-3.02,5.888-3.02h2.851V192.864z
			 M158.83,180.758v-1.267c0-0.371-0.267-0.554-0.804-0.554c-1.735,0-3.507,0.404-5.435,1.481v-0.649c0-0.335-0.308-0.61-0.729-0.61
			h-1.807c-0.428,0-0.733,0.275-0.733,0.61v15.71c0,0.335,0.35,0.613,0.733,0.613h1.884c0.424,0,0.774-0.305,0.774-0.613v-12.905
			c1.925-0.925,3.541-1.293,5.312-1.293C158.563,181.281,158.83,181.096,158.83,180.758 M178.818,187.809v-1.664
			c0-4.373-2.851-7.207-8.473-7.207c-5.506,0-8.548,2.805-8.548,7.207v2.774c0,5.729,4.311,7.393,8.742,7.393
			c2.576,0,4.694-0.186,6.89-0.523c0.612-0.093,0.771-0.309,0.771-0.71v-1.044c0-0.312-0.312-0.431-0.618-0.431h-0.189
			c-1.772,0.212-4.622,0.338-6.854,0.338c-3.547,0-5.357-1.356-5.357-5.022v-0.431h12.896
			C178.546,188.488,178.818,188.21,178.818,187.809 M175.386,186.423h-10.204v-0.278c0-3.322,1.85-4.833,5.163-4.833
			c3.388,0,5.041,1.355,5.041,4.833V186.423z M209.387,179.673c0-0.305-0.234-0.514-0.622-0.514h-2.154
			c-0.343,0-0.652,0.209-0.726,0.458l-4.703,14.072h-0.615c-0.271,0-0.539-0.057-0.729-0.677l-4.545-13.366
			c-0.075-0.248-0.346-0.487-0.651-0.487h-2.122c-0.462,0-0.689,0.209-0.689,0.514c0,0.066,0,0.16,0.036,0.223l5.12,14.072
			c0.696,1.913,1.691,2.125,2.851,2.125h0.537l-0.385,1.263c-0.655,2.162-1.616,2.622-3.812,2.622c-0.846,0-2.579-0.125-3.428-0.182
			h-0.12c-0.417,0-0.726,0.152-0.726,0.487v1.141c0,0.308,0.347,0.4,0.808,0.497c0.809,0.152,2.16,0.278,3.232,0.278
			c4.431,0,5.856-1.236,7.051-4.565l6.352-17.738C209.387,179.833,209.387,179.739,209.387,179.673 M229.945,188.796v-2.34
			c0-4.531-2.927-7.519-8.589-7.519c-5.659,0-8.543,2.987-8.543,7.519v2.34c0,4.529,2.884,7.516,8.543,7.516
			C227.018,196.312,229.945,193.325,229.945,188.796 M226.557,188.796c0,3.173-1.616,5.146-5.201,5.146
			c-3.615,0-5.155-2.002-5.155-5.146v-2.34c0-3.173,1.578-5.145,5.155-5.145c3.623,0,5.201,1.998,5.201,5.145V188.796z
			 M250.698,195.479v-15.71c0-0.335-0.348-0.61-0.732-0.61h-1.89c-0.418,0-0.766,0.306-0.766,0.61v13.002
			c-1.773,0.709-3.584,1.196-5.199,1.196c-2.931,0-4.234-0.955-4.234-4.064V179.77c0-0.335-0.35-0.61-0.774-0.61h-1.847
			c-0.421,0-0.767,0.275-0.767,0.61v10.134c0,4.098,2.073,6.408,6.695,6.408c2.271,0,4.005-0.461,6.126-1.415v0.583
			c0,0.335,0.309,0.613,0.732,0.613h1.923C250.387,196.093,250.698,195.814,250.698,195.479 M276.533,174.353v-1.021
			c0-0.278-0.306-0.398-0.736-0.491c-0.501-0.096-1.114-0.186-2.155-0.186c-3.388,0-5.383,0.988-5.383,4.283v2.221h-3.739
			c-0.425,0-0.729,0.239-0.729,0.554v0.829c0,0.312,0.305,0.521,0.729,0.554l3.739,0.338v14.046c0,0.309,0.345,0.613,0.762,0.613
			h1.89c0.385,0,0.732-0.305,0.732-0.613v-14.046h4.041c0.422,0,0.733-0.216,0.733-0.523v-1.197c0-0.314-0.312-0.554-0.733-0.554
			h-4.041v-2.221c0-1.694,0.537-2.125,2.348-2.125h1.847C276.264,174.813,276.533,174.688,276.533,174.353 M289.62,180.758v-1.267
			c0-0.371-0.271-0.554-0.809-0.554c-1.73,0-3.501,0.404-5.423,1.481v-0.649c0-0.335-0.312-0.61-0.733-0.61h-1.813
			c-0.424,0-0.732,0.275-0.732,0.61v15.71c0,0.335,0.349,0.613,0.732,0.613h1.89c0.425,0,0.767-0.305,0.767-0.613v-12.905
			c1.926-0.925,3.54-1.293,5.313-1.293C289.349,181.281,289.62,181.096,289.62,180.758 M309.717,188.796v-2.34
			c0-4.531-2.921-7.519-8.586-7.519c-5.662,0-8.54,2.987-8.54,7.519v2.34c0,4.529,2.878,7.516,8.54,7.516
			C306.796,196.312,309.717,193.325,309.717,188.796 M306.328,188.796c0,3.173-1.614,5.146-5.197,5.146
			c-3.617,0-5.152-2.002-5.152-5.146v-2.34c0-3.173,1.578-5.145,5.152-5.145c3.619,0,5.197,1.998,5.197,5.145V188.796z
			 M339.751,195.479v-10.906c0-4.276-2.778-5.662-6.239-5.662c-2.002,0-4.27,0.457-6.392,1.26c-0.961-0.892-2.191-1.26-3.845-1.26
			c-2.122,0-4.085,0.676-5.623,1.441v-0.583c0-0.335-0.312-0.61-0.735-0.61h-1.923c-0.432,0-0.729,0.275-0.729,0.61v15.71
			c0,0.335,0.265,0.613,0.653,0.613h2.038c0.425,0,0.696-0.305,0.696-0.613v-13.002c1.614-0.64,3.306-1.196,4.694-1.196
			c2.002,0,2.964,0.557,2.964,3.232v10.966c0,0.335,0.271,0.613,0.656,0.613h2.042c0.418,0,0.689-0.305,0.689-0.613v-10.966
			c0-0.925-0.112-1.724-0.345-2.4c1.502-0.464,3.116-0.832,4.505-0.832c1.999,0,3.504,0.709,3.504,3.292v10.906
			c0,0.335,0.345,0.613,0.77,0.613h1.85C339.406,196.093,339.751,195.814,339.751,195.479"/>
		<path fill="#54534A" d="M92.491,93.459c0-0.696-0.905-1.081-1.931-1.081H78.5c-0.91,0-1.823,0.537-1.936,1.396l-8.191,46.185
			c-0.111,0.693-0.111,1.157-0.567,1.157c-0.454,0-0.454-0.464-0.681-1.157l-9.788-27.16c-0.685-1.853-2.277-3.48-7.169-3.48h-7.845
			c-4.895,0-6.488,1.628-7.169,3.48l-9.788,27.16c-0.227,0.693-0.227,1.157-0.678,1.157c-0.456,0-0.456-0.464-0.57-1.157
			l-8.194-46.185c-0.109-0.859-1.023-1.396-1.928-1.396H1.931C0.908,92.378,0,92.763,0,93.459v0.232l10.696,50.518
			c1.021,4.876,4.321,6.269,10.235,6.269h6.143c5.12,0,7.849-1.704,9.448-6.189l8.985-25.532c0.224-0.696,0.343-0.849,0.797-0.849
			c0.453,0,0.453,0.152,0.683,0.849l8.985,25.532c1.593,4.485,4.325,6.189,9.448,6.189h6.141c5.913,0,9.213-1.393,10.237-6.269
			l10.692-50.518V93.459z M168.83,148.542c0-0.08-0.109-0.229-0.109-0.385l-18.66-48.506c-2.732-7.2-10.923-7.896-15.814-7.896
			c-4.895,0-13.083,0.696-15.813,7.896l-18.657,48.506c0,0.156-0.114,0.305-0.114,0.385c0,0.775,0.907,1.316,2.047,1.316h12.06
			c1.019,0,1.936-0.617,2.163-1.316l5.231-14.699h26.166l5.235,14.699c0.227,0.699,1.137,1.316,2.161,1.316h12.059
			C167.92,149.858,168.83,149.317,168.83,148.542 M144.259,125.028h-20.027l8.194-22.98c0.337-0.931,0.68-1.236,1.82-1.236
			c1.137,0,1.48,0.305,1.823,1.236L144.259,125.028z M231.291,93.539c0-0.624-0.797-1.16-1.934-1.16H216.84
			c-1.023,0-1.82,0.617-2.163,1.233l-13.65,23.06c-0.794,1.312-1.48,1.541-2.047,1.541c-0.458,0-1.137-0.229-1.934-1.541
			l-13.657-23.06c-0.34-0.616-1.13-1.233-2.156-1.233h-12.63c-1.137,0-1.82,0.537-1.82,1.16c0,0.152,0.113,0.388,0.23,0.617
			L184.19,121c2.163,3.405,4.437,4.953,6.942,5.649v21.664c0,0.845,0.91,1.545,2.16,1.545h11.379c1.248,0,2.158-0.7,2.158-1.545
			v-21.664c2.502-0.696,4.777-2.244,6.938-5.649l17.293-26.845C231.178,93.926,231.291,93.774,231.291,93.539 M292.836,99.416
			v-4.949c0-1.081-0.563-1.472-2.273-1.625c-3.641-0.391-8.076-1.087-21.611-1.087c-14.795,0-26.281,2.712-26.281,15.859v40.699
			c0,0.845,1.018,1.545,2.273,1.545h11.146c1.257,0,2.28-0.7,2.28-1.545v-23.677h30.827c1.25,0,2.274-0.696,2.274-1.545v-5.572
			c0-0.849-1.024-1.542-2.274-1.542h-30.827v-8.363c0-5.102,2.388-6.65,8.987-6.65h23.206
			C291.815,100.964,292.836,100.268,292.836,99.416"/>
		<path fill="#54534A" d="M437.027,18.287c0,0,0-2.367-2.334-2.798L350.972,0.031c0,0-2.337-0.435-2.33,1.939v3.491
			c0,0,0,2.37,2.337,2.805l19.496,3.597v11.198c-8.885,4.81-14.723,12.846-14.745,21.966c-0.021,8.629,5.171,16.307,13.227,21.213
			c-7.794,2.287-14.003,5.987-16.356,11.029l-21.674,69.729c-0.483,1.638,0.325,2.625,1.823,2.629l11.324,0.017
			c1.406,0,2.679-0.58,3.03-1.823l18.757-64.14c6.935-13.177,38.109-11.878,41.736,0.096l7.618,28.227
			c0.225,1.479,1.491,1.834,2.983,1.834l9.209,0.013c1.83,0.007,3.321-0.892,2.997-2.622l-8.659-33.817
			c-1.101-4.87-5.629-8.427-11.888-10.717c8.439-4.847,13.927-12.67,13.949-21.518c0.017-6.842-3.242-13.088-8.619-17.829V20.12
			l19.5,3.607c0,0,2.34,0.431,2.34-1.939V18.287z M409.377,45.142c-0.021,8.506-8.815,15.385-19.646,15.362
			c-10.83-0.026-19.589-6.941-19.568-15.448c0.02-8.509,8.814-15.378,19.645-15.358C400.632,29.721,409.396,36.639,409.377,45.142"
			/>
	</g>
	<path fill="#BFD730" d="M470.556,73.35c-4.177,6.932-36.402,62.771-51.19,62.771c-10.071,0-19.171-16.178-24.207-23.421
		c-0.975-1.402-2.506-0.812-2.506-0.812l-12.352,7.571c0,0-1.413,0.742-0.76,2.45c3.014,7.995,23.972,33.229,37.218,33.001
		c20.766-0.358,45.214-50.329,59.737-77.5c1.336-2.496,1.412-2.542-1.83-4.273C471.935,71.686,471.62,71.58,470.556,73.35"/>
</g>
</svg>
